<?xml version="1.0" standalone="no"?><!DOCTYPE svg PUBLIC "-//W3C//DTD SVG 1.1//EN" "http://www.w3.org/Graphics/SVG/1.1/DTD/svg11.dtd" [<!ENTITY nbsp " ">]><svg data-noselect="" viewBox="176.50006103516 36.000003814699994 465 465" width="465" ref="svg_canvas" height="465" preserveAspectRatio="none" version="1.1" xmlns="http://www.w3.org/2000/svg" style="background: #ffffff;"><g id="shape_LLYMbL3d87" ref="shape_LLYMbL3d87" key="shape_LLYMbL3d87" transform="translate(256.50006103516,116.0000038147) rotate(0,152.5,152.5) scale(1,1)" style="cursor:move;display:inline;opacity:1;" filter="">
            <g style="display:inline"><rect fill="rgba(0,0,0,0)" width="325" height="325" x="-10" y="-10"></rect><svg version="1.1" id="图层_1" xmlns="http://www.w3.org/2000/svg" xmlns:xlink="http://www.w3.org/1999/xlink" x="0px" y="0px" width="305" height="305" viewBox="0 0 100 100" enable-background="new 0 0 100 100" xml:space="preserve" shapetype="ellipse" preserveAspectRatio="none" data-parent="shape_LLYMbL3d87">
	 <linearGradient class="" x1="0%" y1="0%" x2="0%" y2="100%" gradientTransform="translate(0.5,0.5) rotate(0) translate(-0.5,-0.5)">
		<stop id="stop1_xAmY6J6Tgg" offset="0%" class="" stop-color="#05a"></stop>
		<stop id="stop2_hljQfB8EmQ" offset="100%" class="" stop-color="#0a5"></stop>
	</linearGradient>

	<radialGradient class="" cx="50%" cy="50%" r="50%" fx="50%" fy="50%">
		<stop offset="0%" class="" stop-color="#05a"></stop>
		<stop offset="100%" class="" stop-color="#0a5"></stop>
	</radialGradient>
	<clipPath id="f_ellipse_utrhanhUJ2" class="">
		<ellipse fill="none" class="" stroke="#dddddd" stroke-width="1" stroke-miterlimit="10" cx="50" cy="50" rx="50" ry="50"></ellipse>
	</clipPath>
	<ellipse class="" fill="#FFD015" opacity="1" cx="50" cy="50" rx="49" ry="49"></ellipse>
	<ellipse class="" fill="none" stroke="#dddddd" stroke-width="0" stroke-miterlimit="10" cx="50" cy="50" rx="50" ry="50" clip-path="url(#f_ellipse_utrhanhUJ2)"></ellipse>
</svg></g>
        </g><g id="shape_IIF9kxcMVF" ref="shape_IIF9kxcMVF" key="shape_IIF9kxcMVF" transform="translate(383.59226226807,278.03722572327) rotate(270,17,69) scale(-1,-1)" style="cursor:move;display:inline;opacity:1;" filter="">
            <g style="display:inline"><rect fill="rgba(0,0,0,0)" width="54" height="158" x="-10" y="-10"></rect><svg version="1.1" xmlns="http://www.w3.org/2000/svg" xmlns:xlink="http://www.w3.org/1999/xlink" x="-34" y="-138" width="34" height="138" viewBox="0 0 100 100" enable-background="new 0 0 100 100" xml:space="preserve" shapetype="right triangle" preserveAspectRatio="none" data-parent="shape_IIF9kxcMVF">
	 <linearGradient class="" x1="0%" y1="0%" x2="0%" y2="100%" gradientTransform="translate(0.5,0.5) rotate(0) translate(-0.5,-0.5)">
		<stop id="stop1_lzFan9tW31" offset="0%" class="" stop-color="#05a"></stop>
		<stop id="stop2_TDooyQEgqT" offset="100%" class="" stop-color="#0a5"></stop>
	</linearGradient>

	<radialGradient class="" cx="50%" cy="50%" r="50%" fx="50%" fy="50%">
		<stop offset="0%" class="" stop-color="#05a"></stop>
		<stop offset="100%" class="" stop-color="#0a5"></stop>
	</radialGradient>
	<clipPath id="f_right_triangle_VJXHr4QvHF" class="">
		<polygon class="" fill="none" stroke="#dddddd" stroke-width="1" stroke-miterlimit="10" points="0,0 0,100 100,100"></polygon>
	</clipPath>
	<polygon fill="#000000" opacity="1" class="" points="0 1 0 100 99 100" clip-path="url(#f_right_triangle_VJXHr4QvHF)"></polygon>
	<polygon class="" fill="none" stroke="#dddddd" stroke-width="0" stroke-miterlimit="10" points="0,0 0,100 100,100" clip-path="url(#f_right_triangle_VJXHr4QvHF)"></polygon>
</svg></g>
        </g><g id="shape_A2NAxKuRgo" ref="shape_A2NAxKuRgo" key="shape_A2NAxKuRgo" transform="translate(334.50006103516,300.77646064758) rotate(0,84.59228515625,14.63037109375) scale(1,1)" style="cursor:move;display:inline;opacity:1;" filter="">
            <g style="display:inline"><svg xmlns="http://www.w3.org/2000/svg" version="1.1" xmlns:xlink="http://www.w3.org/1999/xlink" width="149" height="29.2607421875" viewBox="0 0 149 29.2607421875" preserveAspectRatio="none" data-parent="shape_A2NAxKuRgo"><rect fill="rgba(0,0,0,0)" width="149" height="29.2607421875"></rect><g data-width="148.1689453125" transform="translate(0.41552734375, 0)"><path d="M17.61 0L14.58 0L4.24-17.14L4.24 0L1.87 0L1.87-19.27L5.07-19.27L15.25-2.26L15.25-19.27L17.61-19.27L17.61 0Z" transform="translate(0 21) " fill="rgb(0, 0, 0)" stroke="rgb(0, 0, 0)" stroke-linecap="square" stroke-linejoin="square" stroke-width="0.042" data-glyph-w="19.49462890625" data-glyph-h="28.18603515625" data-glyph-ascender="21.13037109375" data-glyph-descender="-7.0556640625"></path><path d="M13.87 0L1.87 0L1.87-19.27L13.71-19.27L13.71-17.53L4.24-17.53L4.24-10.88L12.51-10.88L12.51-9.47L4.24-9.47L4.24-1.75L13.87-1.75L13.87 0Z" transform="translate(19.49462890625 21) " fill="rgb(0, 0, 0)" stroke="rgb(0, 0, 0)" stroke-linecap="square" stroke-linejoin="square" stroke-width="0.042" data-glyph-w="14.55078125" data-glyph-h="28.18603515625" data-glyph-ascender="21.13037109375" data-glyph-descender="-7.0556640625"></path><path d="M15.26-13.57L15.26-13.57Q15.26-12.12 14.78-11.04Q14.31-9.95 13.24-9.23Q12.18-8.51 10.47-8.15Q8.76-7.80 6.31-7.80L6.31-7.80L4.24-7.80L4.24 0L1.87 0L1.87-19.27L6.71-19.27Q7.70-19.27 8.72-19.19Q9.74-19.10 10.69-18.88Q11.65-18.65 12.48-18.26Q13.31-17.86 13.92-17.22Q14.54-16.59 14.90-15.69Q15.26-14.79 15.26-13.57ZM4.24-9.57L6.09-9.57Q7.93-9.57 9.22-9.78Q10.51-10.00 11.30-10.45Q12.10-10.90 12.46-11.60Q12.82-12.30 12.82-13.28L12.82-13.28Q12.82-14.75 12.35-15.59Q11.88-16.43 11.05-16.86Q10.23-17.30 9.09-17.41Q7.96-17.53 6.64-17.53L6.64-17.53L4.24-17.53L4.24-9.57Z" transform="translate(34.04541015625 21) " fill="rgb(0, 0, 0)" stroke="rgb(0, 0, 0)" stroke-linecap="square" stroke-linejoin="square" stroke-width="0.042" data-glyph-w="16.2353515625" data-glyph-h="28.18603515625" data-glyph-ascender="21.13037109375" data-glyph-descender="-7.0556640625"></path><path d="M13.87 0L1.87 0L1.87-19.27L13.71-19.27L13.71-17.53L4.24-17.53L4.24-10.88L12.51-10.88L12.51-9.47L4.24-9.47L4.24-1.75L13.87-1.75L13.87 0Z" transform="translate(50.28076171875 21) " fill="rgb(0, 0, 0)" stroke="rgb(0, 0, 0)" stroke-linecap="square" stroke-linejoin="square" stroke-width="0.042" data-glyph-w="14.55078125" data-glyph-h="28.18603515625" data-glyph-ascender="21.13037109375" data-glyph-descender="-7.0556640625"></path><path d="M17.61 0L14.58 0L4.24-17.14L4.24 0L1.87 0L1.87-19.27L5.07-19.27L15.25-2.26L15.25-19.27L17.61-19.27L17.61 0Z" transform="translate(64.83154296875 21) " fill="rgb(0, 0, 0)" stroke="rgb(0, 0, 0)" stroke-linecap="square" stroke-linejoin="square" stroke-width="0.042" data-glyph-w="19.49462890625" data-glyph-h="28.18603515625" data-glyph-ascender="21.13037109375" data-glyph-descender="-7.0556640625"></path><path d="M14.33-17.53L8.76-17.53L8.76 0L6.40 0L6.40-17.53L0.81-17.53L0.81-19.27L14.33-19.27L14.33-17.53Z" transform="translate(84.326171875 21) " fill="rgb(0, 0, 0)" stroke="rgb(0, 0, 0)" stroke-linecap="square" stroke-linejoin="square" stroke-width="0.042" data-glyph-w="15.22216796875" data-glyph-h="28.18603515625" data-glyph-ascender="21.13037109375" data-glyph-descender="-7.0556640625"></path><path d="M14.39 0L14.39-9.33L4.24-9.33L4.24 0L1.87 0L1.87-19.27L4.24-19.27L4.24-10.73L14.39-10.73L14.39-19.27L16.76-19.27L16.76 0L14.39 0Z" transform="translate(99.54833984375 21) " fill="rgb(0, 0, 0)" stroke="rgb(0, 0, 0)" stroke-linecap="square" stroke-linejoin="square" stroke-width="0.042" data-glyph-w="18.64013671875" data-glyph-h="28.18603515625" data-glyph-ascender="21.13037109375" data-glyph-descender="-7.0556640625"></path><path d="M13.87 0L1.87 0L1.87-19.27L13.71-19.27L13.71-17.53L4.24-17.53L4.24-10.88L12.51-10.88L12.51-9.47L4.24-9.47L4.24-1.75L13.87-1.75L13.87 0Z" transform="translate(118.1884765625 21) " fill="rgb(0, 0, 0)" stroke="rgb(0, 0, 0)" stroke-linecap="square" stroke-linejoin="square" stroke-width="0.042" data-glyph-w="14.55078125" data-glyph-h="28.18603515625" data-glyph-ascender="21.13037109375" data-glyph-descender="-7.0556640625"></path><path d="M14.31-5.10L14.31-5.10Q14.31-4.05 13.96-3.05Q13.61-2.05 12.80-1.26Q11.99-0.46 10.66 0.02Q9.33 0.50 7.37 0.50L7.37 0.50Q6.30 0.50 5.30 0.29Q4.30 0.07 3.52-0.18L3.52-0.18Q2.60-0.49 1.79-0.88L1.79-0.88L2.04-2.71Q2.76-2.33 3.58-2.03L3.58-2.03Q4.27-1.77 5.18-1.56Q6.08-1.35 7.04-1.35L7.04-1.35Q8.01-1.35 8.89-1.51Q9.77-1.66 10.42-2.06Q11.08-2.47 11.47-3.17Q11.87-3.88 11.87-4.99L11.87-4.99Q11.87-5.69 11.65-6.25Q11.44-6.81 11.04-7.26Q10.63-7.70 10.06-8.04Q9.50-8.37 8.79-8.63L8.79-8.63L5.32-9.85Q4.49-10.14 3.70-10.55Q2.92-10.96 2.31-11.54Q1.70-12.12 1.32-12.88Q0.95-13.64 0.95-14.62L0.95-14.62Q0.95-15.98 1.42-16.93Q1.88-17.88 2.72-18.49Q3.55-19.09 4.71-19.37Q5.86-19.65 7.25-19.65L7.25-19.65Q8.14-19.65 8.96-19.53Q9.78-19.40 10.52-19.18Q11.25-18.96 11.90-18.68Q12.54-18.41 13.06-18.12L13.06-18.12L12.70-16.32Q12.24-16.59 11.66-16.85Q11.08-17.11 10.42-17.32Q9.77-17.53 9.05-17.66Q8.34-17.80 7.62-17.80L7.62-17.80Q6.48-17.80 5.68-17.63Q4.88-17.46 4.38-17.09Q3.87-16.72 3.63-16.15Q3.39-15.58 3.39-14.77L3.39-14.77Q3.39-12.85 5.75-12.04L5.75-12.04L9.57-10.71Q10.52-10.38 11.38-9.88Q12.24-9.39 12.90-8.70Q13.55-8.02 13.93-7.13Q14.31-6.24 14.31-5.10Z" transform="translate(132.7392578125 21) " fill="rgb(0, 0, 0)" stroke="rgb(0, 0, 0)" stroke-linecap="square" stroke-linejoin="square" stroke-width="0.042" data-glyph-w="15.4296875" data-glyph-h="28.18603515625" data-glyph-ascender="21.13037109375" data-glyph-descender="-7.0556640625"></path></g></svg></g>
        </g><g id="shape_FZyaAYumw5" ref="shape_FZyaAYumw5" key="shape_FZyaAYumw5" transform="translate(299.50006842041,197.77642822266) rotate(0,193.6315,47.5) scale(1,1)" style="cursor:move;display:inline;opacity:1;" filter="">
            <g style="display:inline"><svg xmlns="http://www.w3.org/2000/svg" version="1.1" xmlns:xlink="http://www.w3.org/1999/xlink" width="219" height="80.72200000000001" viewBox="0 0 219 80.72200000000001" preserveAspectRatio="none" data-parent="shape_FZyaAYumw5"><rect fill="rgba(0,0,0,0)" width="219" height="80.72200000000001"></rect><g data-width="218.04000000000002" transform="translate(0.47999999999998977, 0)"><path d="M18.17-20.38L29.94-20.38L29.94-10.19Q29.94-9.09 30.65-8.37Q31.36-7.66 32.47-7.66L32.47-7.66L55.77-7.66L52.30 0.08L26.78 0.08Q24.96 0.08 23.42-0.59Q21.88-1.26 20.70-2.45Q19.51-3.63 18.84-5.17Q18.17-6.71 18.17-8.53L18.17-8.53L18.17-20.38ZM40.61-56.96L42.82-51.98L71.02-51.98L71.02-44.16L17.93-44.16L17.93-34.13Q17.93-33.10 18.64-32.39Q19.36-31.68 20.38-31.68L20.38-31.68L69.20-31.68L65.73-23.86L14.77-23.86Q12.96-23.86 11.38-24.53Q9.80-25.20 8.61-26.39Q7.43-27.57 6.75-29.15Q6.08-30.73 6.08-32.55L6.08-32.55L6.08-44.16L1.66-44.16L1.66-51.98L30.81-51.98L28.68-56.96L40.61-56.96ZM1.66 0L3.63-20.38L14.46-20.38L12.48 0L1.66 0ZM66.99-20.38L71.02 0L60.44 0L56.41-20.38L66.99-20.38ZM49.69-20.38L51.98-10.59L41.32-10.59L39.03-20.38L49.69-20.38Z" transform="translate(0 67) " fill="rgb(0, 0, 0)" stroke="rgb(0, 0, 0)" stroke-linecap="square" stroke-linejoin="square" stroke-width="0.132" data-glyph-w="72.68" data-glyph-h="79" data-glyph-ascender="67.861" data-glyph-descender="-11.139"></path><path d="M25.04 0.24L14.14 0.24L14.14-30.73L11.14-31.28L11.14-3.24L1.66-3.24L1.66-53.64L11.14-53.64L11.14-39.34L14.14-38.79L14.14-57.12L25.04-57.12L25.04-36.97L28.68-36.34L28.68-28.28L25.04-28.91L25.04 0.24ZM47.16-33.81L58.14-33.81L58.14-10.27Q58.14-9.16 58.86-8.45Q59.57-7.74 60.59-7.74L60.59-7.74L71.02-7.74L68.41 0.08L55.85 0.08Q54.04 0.08 52.46-0.59Q50.88-1.26 49.69-2.45Q48.51-3.63 47.83-5.21Q47.16-6.79 47.16-8.61L47.16-8.61L47.16-33.81ZM66.52-55.38L71.02-36.89L46.37-36.89L39.90 0.08L28.12 0.08L34.52-36.89L29.63-36.89L29.63-44.56L35.87-44.56L38.08-57.12L49.85-57.12L47.64-44.56L57.83-44.56L55.06-55.38L66.52-55.38Z" transform="translate(72.68 67) " fill="rgb(0, 0, 0)" stroke="rgb(0, 0, 0)" stroke-linecap="square" stroke-linejoin="square" stroke-width="0.132" data-glyph-w="72.68" data-glyph-h="79" data-glyph-ascender="67.861" data-glyph-descender="-11.139"></path><path d="M1.90-10.51L31.44-10.51L31.44-14.14L1.90-14.14L1.90-43.05L70.63-43.05L70.63-22.75Q70.63-20.93 69.95-19.39Q69.28-17.85 68.10-16.67Q66.91-15.48 65.33-14.81Q63.75-14.14 62.02-14.14L62.02-14.14L42.11-14.14L42.11-10.51L70.63-10.51L70.63-3.56L42.11-3.56L42.11 0L31.44 0L31.44-3.56L1.90-3.56L1.90-10.51ZM12.56-36.10L12.56-32.07L60.04-32.07L60.04-36.10L12.56-36.10ZM12.56-25.12L12.56-21.01L57.59-21.01Q58.62-21.01 59.33-21.73Q60.04-22.44 60.04-23.54L60.04-23.54L60.04-25.12L12.56-25.12ZM63.91-56.88L62.49-53.72L70.94-53.72L70.94-48.03L60.04-48.03L58.93-45.42L47.08-45.42L48.19-48.03L25.12-48.03L26.23-45.42L14.38-45.42L13.27-48.03L1.66-48.03L1.66-53.72L10.82-53.72L9.48-56.88L21.25-56.88L22.67-53.72L50.64-53.72L52.06-56.88L63.91-56.88Z" transform="translate(145.36 67) " fill="rgb(0, 0, 0)" stroke="rgb(0, 0, 0)" stroke-linecap="square" stroke-linejoin="square" stroke-width="0.132" data-glyph-w="72.68" data-glyph-h="79" data-glyph-ascender="67.861" data-glyph-descender="-11.139"></path></g></svg></g>
        </g></svg>