<?xml version="1.0" standalone="no"?><!DOCTYPE svg PUBLIC "-//W3C//DTD SVG 1.1//EN" "http://www.w3.org/Graphics/SVG/1.1/DTD/svg11.dtd" [<!ENTITY nbsp " ">]><svg data-noselect="" viewBox="126 119.97377938432999 409.99999237061 318.05244123134" width="409.99999237061" ref="svg_canvas" height="318.05244123134" preserveAspectRatio="none" version="1.1" xmlns="http://www.w3.org/2000/svg" style="background: #ffffff;"><g id="shape_nr4LgAblG4" ref="shape_nr4LgAblG4" key="shape_nr4LgAblG4" transform="translate(206,199.97377938433) rotate(0,80,79.026220615668) scale(1,1)" style="cursor:move;display:inline;opacity:1;" filter="">
            <g style="display:inline"><rect fill="rgba(0,0,0,0)" width="180" height="178.05244123134" x="-10" y="-10"></rect><svg version="1.1" id="图层_1" xmlns="http://www.w3.org/2000/svg" xmlns:xlink="http://www.w3.org/1999/xlink" x="0px" y="0px" width="160" height="158.05244123134" viewBox="28.700000762939453 38 213.59999084472656 211" style="enable-background:new 0 0 262.5 274.5;" xml:space="preserve" preserveAspectRatio="none" data-parent="shape_nr4LgAblG4">
<style type="text/css">
	.st0{fill:#EE282E;}
</style>
<g>
	<circle class="" cx="82.5" cy="68.3" r="11.4" fill="#008037"></circle>
	<path class="" d="M176.4,245.4c15.1,0,29.4-3.6,42-10.1C204,244,187.1,249,169,249c-53,0-96-43-96-96s43-96,96-96
		c18.1,0,35,5,49.4,13.7c-12.6-6.5-26.9-10.1-42-10.1c-51,0-92.4,41.4-92.4,92.5S125.4,245.4,176.4,245.4z" fill="#008037"></path>
	<path class="" d="M150.4,241c12.4,5,25.4,6.7,37.9,5.5c-14.7,2.4-30.2,1-45.1-5C99.5,224.1,78.3,174.7,95.7,131
		s66.9-64.8,110.5-47.4c14.9,5.9,27.1,15.6,36.1,27.5c-8.2-9.4-18.8-17.1-31.2-22.1c-42-16.8-89.6,3.7-106.4,45.7
		S108.4,224.3,150.4,241z" fill="#008037"></path>
	<path class="" d="M61.6,164.1c2.2-13,2.8-26.7,1.5-40.8C60.2,89.8,47.5,60.1,28.7,38c25.7,18.6,42.4,48.9,42.4,83
		C71.1,136.4,67.7,151,61.6,164.1z" fill="#008037"></path>
</g>
</svg></g>
        </g><g id="shape_2umji69zLk" ref="shape_2umji69zLk" key="shape_2umji69zLk" transform="translate(292.99998474121,319.96573638916) rotate(0,77.4955,8.328125) scale(1,1)" style="cursor:move;display:inline;opacity:1;" filter="">
            <g style="display:inline"><svg xmlns="http://www.w3.org/2000/svg" version="1.1" xmlns:xlink="http://www.w3.org/1999/xlink" width="112" height="22.020000000000003" viewBox="0 0 112 22.020000000000003" preserveAspectRatio="none" data-parent="shape_2umji69zLk"><rect fill="rgba(0,0,0,0)" width="112" height="22.020000000000003"></rect><g data-width="111.537" transform=""><path d="M10.93-2.65L10.93-12.58L12.75-12.58L12.75 0L10.79 0L3.37-9.93L3.37 0L1.56 0L1.56-12.58L3.51-12.58L10.93-2.65Z" transform="translate(0 17) " fill="rgb(39, 6, 9)" stroke="rgb(39, 6, 9)" stroke-linecap="square" stroke-linejoin="square" stroke-width="0.028" data-glyph-w="14.3055" data-glyph-h="21.25" data-glyph-ascender="17.51" data-glyph-descender="-3.74"></path><path d="M3.46-5.70L3.46-1.50L10.78-1.50L10.78 0L1.56 0L1.56-12.58L10.69-12.58L10.69-11.08L3.46-11.08L3.46-7.20L9.82-7.20L9.82-5.70L3.46-5.70Z" transform="translate(14.3055 17) " fill="rgb(39, 6, 9)" stroke="rgb(39, 6, 9)" stroke-linecap="square" stroke-linejoin="square" stroke-width="0.028" data-glyph-w="11.6195" data-glyph-h="21.25" data-glyph-ascender="17.51" data-glyph-descender="-3.74"></path><path d="M1.56 0L1.56-12.34Q2.53-12.53 3.46-12.62Q4.38-12.72 5.41-12.72L5.41-12.72Q8.24-12.72 9.65-11.66Q11.07-10.60 11.07-8.36L11.07-8.36Q11.07-3.97 5.30-3.97L5.30-3.97Q4.56-3.97 3.48-4.05L3.48-4.05L3.48 0L1.56 0ZM5.31-5.40Q6.69-5.40 7.54-5.72Q8.39-6.04 8.78-6.69Q9.18-7.34 9.18-8.36L9.18-8.36Q9.18-9.89 8.29-10.59Q7.40-11.30 5.56-11.30L5.56-11.30Q4.45-11.30 3.48-11.13L3.48-11.13L3.48-5.52Q4.32-5.40 5.31-5.40L5.31-5.40Z" transform="translate(25.925 17) " fill="rgb(39, 6, 9)" stroke="rgb(39, 6, 9)" stroke-linecap="square" stroke-linejoin="square" stroke-width="0.028" data-glyph-w="11.874500000000001" data-glyph-h="21.25" data-glyph-ascender="17.51" data-glyph-descender="-3.74"></path><path d="M3.46-5.70L3.46-1.50L10.78-1.50L10.78 0L1.56 0L1.56-12.58L10.69-12.58L10.69-11.08L3.46-11.08L3.46-7.20L9.82-7.20L9.82-5.70L3.46-5.70Z" transform="translate(37.7995 17) " fill="rgb(39, 6, 9)" stroke="rgb(39, 6, 9)" stroke-linecap="square" stroke-linejoin="square" stroke-width="0.028" data-glyph-w="11.6195" data-glyph-h="21.25" data-glyph-ascender="17.51" data-glyph-descender="-3.74"></path><path d="M10.93-2.65L10.93-12.58L12.75-12.58L12.75 0L10.79 0L3.37-9.93L3.37 0L1.56 0L1.56-12.58L3.51-12.58L10.93-2.65Z" transform="translate(49.419000000000004 17) " fill="rgb(39, 6, 9)" stroke="rgb(39, 6, 9)" stroke-linecap="square" stroke-linejoin="square" stroke-width="0.028" data-glyph-w="14.3055" data-glyph-h="21.25" data-glyph-ascender="17.51" data-glyph-descender="-3.74"></path><path d="M6.72 0L4.80 0L4.80-11.02L0.18-11.02L0.18-12.58L11.35-12.58L11.35-11.02L6.72-11.02L6.72 0Z" transform="translate(63.724500000000006 17) " fill="rgb(39, 6, 9)" stroke="rgb(39, 6, 9)" stroke-linecap="square" stroke-linejoin="square" stroke-width="0.028" data-glyph-w="11.526000000000002" data-glyph-h="21.25" data-glyph-ascender="17.51" data-glyph-descender="-3.74"></path><path d="M3.48 0L1.56 0L1.56-12.58L3.48-12.58L3.48-7.28L10.64-7.28L10.64-12.58L12.56-12.58L12.56 0L10.64 0L10.64-5.61L3.48-5.61L3.48 0Z" transform="translate(75.2505 17) " fill="rgb(39, 6, 9)" stroke="rgb(39, 6, 9)" stroke-linecap="square" stroke-linejoin="square" stroke-width="0.028" data-glyph-w="14.118500000000001" data-glyph-h="21.25" data-glyph-ascender="17.51" data-glyph-descender="-3.74"></path><path d="M3.46-5.70L3.46-1.50L10.78-1.50L10.78 0L1.56 0L1.56-12.58L10.69-12.58L10.69-11.08L3.46-11.08L3.46-7.20L9.82-7.20L9.82-5.70L3.46-5.70Z" transform="translate(89.369 17) " fill="rgb(39, 6, 9)" stroke="rgb(39, 6, 9)" stroke-linecap="square" stroke-linejoin="square" stroke-width="0.028" data-glyph-w="11.6195" data-glyph-h="21.25" data-glyph-ascender="17.51" data-glyph-descender="-3.74"></path><path d="M4.69 0.16Q2.70 0.16 0.98-0.41L0.98-0.41L0.98-1.97Q1.84-1.68 2.84-1.53Q3.84-1.38 4.72-1.38L4.72-1.38Q6.36-1.38 7.13-1.90Q7.90-2.42 7.90-3.44L7.90-3.44Q7.90-4.01 7.65-4.38Q7.40-4.75 6.84-5.00Q6.29-5.24 5.33-5.43L5.33-5.43L4.48-5.60Q2.52-5.98 1.63-6.83Q0.74-7.68 0.74-9.10L0.74-9.10Q0.74-10.84 2.05-11.79Q3.37-12.74 5.92-12.74L5.92-12.74Q7.70-12.74 9.21-12.31L9.21-12.31L9.21-10.74Q8.47-10.96 7.62-11.08Q6.78-11.20 5.94-11.20L5.94-11.20Q2.65-11.20 2.65-9.18L2.65-9.18Q2.65-8.62 2.87-8.25Q3.09-7.88 3.60-7.63Q4.10-7.39 4.97-7.21L4.97-7.21L5.82-7.05Q7.25-6.77 8.13-6.30Q9.01-5.83 9.41-5.15Q9.81-4.47 9.81-3.54L9.81-3.54Q9.81-2.37 9.21-1.54Q8.60-0.71 7.45-0.27Q6.30 0.16 4.69 0.16L4.69 0.16Z" transform="translate(100.9885 17) " fill="rgb(39, 6, 9)" stroke="rgb(39, 6, 9)" stroke-linecap="square" stroke-linejoin="square" stroke-width="0.028" data-glyph-w="10.5485" data-glyph-h="21.25" data-glyph-ascender="17.51" data-glyph-descender="-3.74"></path></g></svg></g>
        </g><g id="shape_HghSvJ46Ao" ref="shape_HghSvJ46Ao" key="shape_HghSvJ46Ao" transform="translate(281.99999237061,254.94622421265) rotate(0,123.46,31.109375) scale(1,1)" style="cursor:move;display:inline;opacity:1;" filter="">
            <g style="display:inline"><svg xmlns="http://www.w3.org/2000/svg" version="1.1" xmlns:xlink="http://www.w3.org/1999/xlink" width="174" height="63.233999999999995" viewBox="0 0 174 63.233999999999995" preserveAspectRatio="none" data-parent="shape_HghSvJ46Ao"><rect fill="rgba(0,0,0,0)" width="174" height="63.233999999999995"></rect><g data-width="173.88" transform=""><path d="M14.49-16.25L23.88-16.25L23.88-8.13Q23.88-7.25 24.44-6.68Q25.01-6.11 25.89-6.11L25.89-6.11L44.48-6.11L41.71 0.06L21.36 0.06Q19.91 0.06 18.68-0.47Q17.45-1.01 16.51-1.95Q15.56-2.90 15.03-4.13Q14.49-5.36 14.49-6.80L14.49-6.80L14.49-16.25ZM32.38-45.42L34.15-41.45L56.64-41.45L56.64-35.22L14.30-35.22L14.30-27.22Q14.30-26.40 14.87-25.83Q15.44-25.26 16.25-25.26L16.25-25.26L55.19-25.26L52.42-19.03L11.78-19.03Q10.33-19.03 9.07-19.56Q7.81-20.10 6.87-21.04Q5.92-21.99 5.39-23.25Q4.85-24.51 4.85-25.96L4.85-25.96L4.85-35.22L1.32-35.22L1.32-41.45L24.57-41.45L22.87-45.42L32.38-45.42ZM1.32 0L2.90-16.25L11.53-16.25L9.95 0L1.32 0ZM53.42-16.25L56.64 0L48.20 0L44.98-16.25L53.42-16.25ZM39.63-16.25L41.45-8.44L32.95-8.44L31.12-16.25L39.63-16.25Z" transform="translate(0 54) " fill="rgb(39, 6, 9)" stroke="rgb(39, 6, 9)" stroke-linecap="square" stroke-linejoin="square" stroke-width="0.105" data-glyph-w="57.96" data-glyph-h="63" data-glyph-ascender="54.117" data-glyph-descender="-8.883000000000001"></path><path d="M19.97 0.19L11.28 0.19L11.28-24.51L8.88-24.95L8.88-2.58L1.32-2.58L1.32-42.78L8.88-42.78L8.88-31.37L11.28-30.93L11.28-45.55L19.97-45.55L19.97-29.48L22.87-28.98L22.87-22.55L19.97-23.06L19.97 0.19ZM37.61-26.96L46.37-26.96L46.37-8.19Q46.37-7.31 46.94-6.74Q47.50-6.17 48.32-6.17L48.32-6.17L56.64-6.17L54.56 0.06L44.54 0.06Q43.09 0.06 41.83-0.47Q40.57-1.01 39.63-1.95Q38.68-2.90 38.15-4.16Q37.61-5.42 37.61-6.87L37.61-6.87L37.61-26.96ZM53.05-44.16L56.64-29.42L36.98-29.42L31.82 0.06L22.43 0.06L27.53-29.42L23.63-29.42L23.63-35.53L28.60-35.53L30.37-45.55L39.75-45.55L37.99-35.53L46.12-35.53L43.91-44.16L53.05-44.16Z" transform="translate(57.96 54) " fill="rgb(39, 6, 9)" stroke="rgb(39, 6, 9)" stroke-linecap="square" stroke-linejoin="square" stroke-width="0.105" data-glyph-w="57.96" data-glyph-h="63" data-glyph-ascender="54.117" data-glyph-descender="-8.883000000000001"></path><path d="M1.51-8.38L25.07-8.38L25.07-11.28L1.51-11.28L1.51-34.34L56.32-34.34L56.32-18.14Q56.32-16.70 55.79-15.47Q55.25-14.24 54.31-13.29Q53.36-12.35 52.10-11.81Q50.84-11.28 49.45-11.28L49.45-11.28L33.58-11.28L33.58-8.38L56.32-8.38L56.32-2.83L33.58-2.83L33.58 0L25.07 0L25.07-2.83L1.51-2.83L1.51-8.38ZM10.02-28.79L10.02-25.58L47.88-25.58L47.88-28.79L10.02-28.79ZM10.02-20.03L10.02-16.76L45.93-16.76Q46.75-16.76 47.31-17.32Q47.88-17.89 47.88-18.77L47.88-18.77L47.88-20.03L10.02-20.03ZM50.97-45.36L49.83-42.84L56.57-42.84L56.57-38.30L47.88-38.30L47.00-36.23L37.55-36.23L38.43-38.30L20.03-38.30L20.92-36.23L11.47-36.23L10.58-38.30L1.32-38.30L1.32-42.84L8.63-42.84L7.56-45.36L16.95-45.36L18.08-42.84L40.38-42.84L41.52-45.36L50.97-45.36Z" transform="translate(115.92 54) " fill="rgb(39, 6, 9)" stroke="rgb(39, 6, 9)" stroke-linecap="square" stroke-linejoin="square" stroke-width="0.105" data-glyph-w="57.96" data-glyph-h="63" data-glyph-ascender="54.117" data-glyph-descender="-8.883000000000001"></path></g></svg></g>
        </g></svg>